{"title":"Aalesund - Brann 20-05-2012 Tippeligaen","uid":7284748,"size":5281178312,"categoryP":"video","categoryS":"tv_shows","magnet":"?xt=urn:btih:2b0c6c75095382ecac21adae49f07b5d8c489f11&amp;dn=Aalesund+-+Brann+20-05-2012+Tippeligaen&amp;tr=udp%3A%2F%2Ftracker.openbittorrent.com%3A80&amp;tr=udp%3A%2F%2Fopen.demonii.com%3A1337&amp;tr=udp%3A%2F%2Ftracker.coppersurfer.tk%3A6969&amp;tr=udp%3A%2F%2Fexodus.desync.com%3A6969","seeders":0,"leechers":0,"uploader":"fisker","files":1,"time":1337545945,"description":"Format                                   : MPEG-TS\nFile size                                : 4.92 GiB\nDuration                                 : 1h 59mn\nOverall bit rate mode                    : Variable\nOverall bit rate                         : 5 869 Kbps\n\n\nFormat                                   : MPEG Video\nFormat version                           : Version 2\nFormat profile                           : Main@Main\nFormat settings, BVOP                    : Yes\nFormat settings, Matrix                  : Custom\nFormat settings, GOP                     : M=3, N=12\nCodec ID                                 : 2\nDuration                                 : 1h 59mn\nBit rate mode                            : Variable\nBit rate                                 : 5 320 Kbps\nMaximum bit rate                         : 10 000 Kbps\nWidth                                    : 720 pixels\nHeight                                   : 576 pixels\nDisplay aspect ratio                     : 16:9\nFrame rate                               : 25.000 fps\nStandard                                 : PAL\nColor space                              : YUV\nChroma subsampling                       : 4:2:0\nBit depth                                : 8 bits\nScan type                                : Interlaced\nScan order                               : Top Field First\nCompression mode                         : Lossy\nBits/(Pixel*Frame)                       : 0.513\nStream size                              : 4.46 GiB (91%)\n\nFormat                                   : MPEG Audio\nFormat version                           : Version 1\nFormat profile                           : Layer 2\nCodec ID                                 : 3\nDuration                                 : 1h 59mn\nBit rate mode                            : Constant\nBit rate                                 : 256 Kbps\nChannel(s)                               : 2 channels\nSampling rate                            : 48.0 KHz\nCompression mode                         : Lossy\nDelay relative to video                  : -496ms\nStream size                              : 220 MiB (4%)\nLanguage                                 : Norwegian\n\n","torrent":{"xt":"urn:btih:2b0c6c75095382ecac21adae49f07b5d8c489f11","amp;dn":"Aalesund+-+Brann+20-05-2012+Tippeligaen","amp;tr":["udp%3A%2F%2Ftracker.openbittorrent.com%3A80","udp%3A%2F%2Fopen.demonii.com%3A1337","udp%3A%2F%2Ftracker.coppersurfer.tk%3A6969","udp%3A%2F%2Fexodus.desync.com%3A6969"],"infoHash":"2b0c6c75095382ecac21adae49f07b5d8c489f11","infoHashBuffer":{"type":"Buffer","data":[43,12,108,117,9,83,130,236,172,33,173,174,73,240,123,93,140,72,159,17]},"announce":[],"urlList":[]}}